<svg xmlns="http://www.w3.org/2000/svg" width="1200" height="580" viewBox="0 0 1200 580" role="img"><title>Hiwa Abdolahi — software developer</title><defs><radialGradient id="a"><stop stop-color="#154840"/><stop offset="1" stop-color="#071a20"/></radialGradient><linearGradient id="g"><stop stop-color="#96f2cd"/><stop offset="1" stop-color="#7ba9ff"/></linearGradient><filter id="glow"><feGaussianBlur stdDeviation="5"/></filter></defs><style>text{font-family:Arial,Helvetica,sans-serif}.mono{font-family:monospace;letter-spacing:2px}.cream{fill:#f3efdf}.muted{fill:#9babaa}.mint{fill:#96f2cd}@media(prefers-reduced-motion:reduce){.motion{display:none}}</style><rect width="1200" height="580" rx="20" fill="#091b21"/><rect x=".5" y=".5" width="1199" height="579" rx="20" fill="none" stroke="#294047"/>
<rect x="720" y="60" width="420" height="400" fill="url(#a)"/>
<path d="M48 85H1152M48 493H1152" stroke="#294047"/>
<text x="48" y="51" class="cream mono" font-size="17">HA / HIWA ABDOLAHI</text>
<text x="1152" y="51" text-anchor="end" class="muted mono" font-size="12">SOFTWARE DEVELOPER · NORWAY</text>
<text x="48" y="143" class="mint mono" font-size="13">CODE. CONNECT. CREATE.</text>
<text x="44" y="236" class="cream" font-size="86" font-weight="700" letter-spacing="-5">Ideas become</text>
<text x="44" y="329" class="cream" font-size="86" font-weight="700" letter-spacing="-5">working systems<tspan fill="#96f2cd">.</tspan></text>
<text x="48" y="394" class="muted" font-size="21">From backend logic to cloud-connected experiences.</text>
<text x="48" y="430" class="muted" font-size="21">Built with curiosity. Refined through practice.</text>
<g><ellipse cx="922" cy="262" rx="68" ry="169" fill="none" stroke="#96f2cd" stroke-opacity="0.16" transform="rotate(0 922 262)"/><ellipse cx="922" cy="262" rx="84" ry="169" fill="none" stroke="#87bcdb" stroke-opacity="0.235" transform="rotate(26 922 262)"/><ellipse cx="922" cy="262" rx="100" ry="169" fill="none" stroke="#96f2cd" stroke-opacity="0.31" transform="rotate(52 922 262)"/><ellipse cx="922" cy="262" rx="116" ry="169" fill="none" stroke="#87bcdb" stroke-opacity="0.385" transform="rotate(78 922 262)"/><ellipse cx="922" cy="262" rx="132" ry="169" fill="none" stroke="#96f2cd" stroke-opacity="0.45999999999999996" transform="rotate(104 922 262)"/><ellipse cx="922" cy="262" rx="148" ry="169" fill="none" stroke="#87bcdb" stroke-opacity="0.535" transform="rotate(130 922 262)"/><ellipse cx="922" cy="262" rx="164" ry="169" fill="none" stroke="#96f2cd" stroke-opacity="0.61" transform="rotate(156 922 262)"/><circle class="motion" r="4" fill="#d8ffee"><animateMotion dur="16s" begin="-0s" repeatCount="indefinite" path="M1091 262 A169 169 0 1 1 753 262 A169 169 0 1 1 1091 262"/></circle><circle class="motion" r="2" fill="#d8ffee"><animateMotion dur="19s" begin="-4s" repeatCount="indefinite" path="M1091 262 A169 169 0 1 1 753 262 A169 169 0 1 1 1091 262"/></circle><circle class="motion" r="2" fill="#d8ffee"><animateMotion dur="22s" begin="-8s" repeatCount="indefinite" path="M1091 262 A169 169 0 1 1 753 262 A169 169 0 1 1 1091 262"/></circle><circle class="motion" r="2" fill="#d8ffee"><animateMotion dur="25s" begin="-12s" repeatCount="indefinite" path="M1091 262 A169 169 0 1 1 753 262 A169 169 0 1 1 1091 262"/></circle><circle class="motion" r="2" fill="#d8ffee"><animateMotion dur="28s" begin="-16s" repeatCount="indefinite" path="M1091 262 A169 169 0 1 1 753 262 A169 169 0 1 1 1091 262"/></circle><circle cx="922" cy="262" r="32" fill="#96f2cd" opacity=".1" filter="url(#glow)"/><circle cx="922" cy="262" r="5" fill="#e1ffeb"/></g>
<text x="48" y="538" class="mint mono" font-size="15">.NET / AZURE / IoT / APPLIED AI</text>
<text x="1152" y="538" text-anchor="end" class="muted mono" font-size="12">M.Sc. INFORMATICS @ USN</text></svg>